HIERARCHY
ROOT Hips
{
	OFFSET 0.000000 0.000000 0.000000
	CHANNELS 6 Xposition Yposition Zposition Zrotation Yrotation Xrotation
	JOINT LHipJoint
	{
		OFFSET 0.000000 0.000000 0.000000
		CHANNELS 3 Zrotation Yrotation Xrotation
		JOINT LeftUpLeg
		{
			OFFSET 1.363060 -1.794630 0.839290
			CHANNELS 3 Zrotation Yrotation Xrotation
			JOINT LeftLeg
			{
				OFFSET 2.448110 -6.726130 0.000000
				CHANNELS 3 Zrotation Yrotation Xrotation
				JOINT LeftFoot
				{
					OFFSET 2.562200 -7.039590 0.000000
					CHANNELS 3 Zrotation Yrotation Xrotation
					JOINT LeftToeBase
					{
						OFFSET 0.157640 -0.433110 2.322550
						CHANNELS 3 Zrotation Yrotation Xrotation
						End Site
						{
							OFFSET 0.000000 0.000000 0.000000
						}
					}
				}
			}
		}
	}
	JOINT RHipJoint
	{
		OFFSET 0.000000 0.000000 0.000000
		CHANNELS 3 Zrotation Yrotation Xrotation
		JOINT RightUpLeg
		{
			OFFSET -1.305520 -1.794630 0.839290
			CHANNELS 3 Zrotation Yrotation Xrotation
			JOINT RightLeg
			{
				OFFSET -2.542530 -6.985550 0.000000
				CHANNELS 3 Zrotation Yrotation Xrotation
				JOINT RightFoot
				{
					OFFSET -2.568260 -7.056230 0.000000
					CHANNELS 3 Zrotation Yrotation Xrotation
					JOINT RightToeBase
					{
						OFFSET -0.164730 -0.452590 2.363150
						CHANNELS 3 Zrotation Yrotation Xrotation
						End Site
						{
							OFFSET 0.000000 0.000000 0.000000
						}
					}
				}
			}
		}
	}
	JOINT LowerBack
	{
		OFFSET 0.000000 0.000000 0.000000
		CHANNELS 3 Zrotation Yrotation Xrotation
		JOINT Spine
		{
			OFFSET 0.028270 2.035590 -0.193380
			CHANNELS 3 Zrotation Yrotation Xrotation
			JOINT Spine1
			{
				OFFSET 0.056720 2.048850 -0.042750
				CHANNELS 3 Zrotation Yrotation Xrotation
				JOINT Neck
				{
					OFFSET 0.000000 0.000000 0.000000
					CHANNELS 3 Zrotation Yrotation Xrotation
					JOINT Neck1
					{
						OFFSET -0.054170 1.746240 0.172020
						CHANNELS 3 Zrotation Yrotation Xrotation
						JOINT Head
						{
							OFFSET 0.104070 1.761360 -0.123970
							CHANNELS 3 Zrotation Yrotation Xrotation
							End Site
							{
								OFFSET 0.000000 0.000000 0.000000
							}
						}
					}
				}
				JOINT LeftShoulder
				{
					OFFSET 0.000000 0.000000 0.000000
					CHANNELS 3 Zrotation Yrotation Xrotation
					JOINT LeftArm
					{
						OFFSET 3.362410 1.200890 -0.311210
						CHANNELS 3 Zrotation Yrotation Xrotation
						JOINT LeftForeArm
						{
							OFFSET 4.983000 -0.000000 -0.000000
							CHANNELS 3 Zrotation Yrotation Xrotation
							JOINT LeftHand
							{
								OFFSET 3.483560 -0.000000 -0.000000
								CHANNELS 3 Zrotation Yrotation Xrotation
								JOINT LeftFingerBase
								{
									OFFSET 0.000000 0.000000 0.000000
									CHANNELS 3 Zrotation Yrotation Xrotation
									JOINT LeftHandIndex1
									{
										OFFSET 0.715260 -0.000000 -0.000000
										CHANNELS 3 Zrotation Yrotation Xrotation
										End Site
										{
											OFFSET 0.000000 0.000000 0.000000
										}
									}
								}
								JOINT LThumb
								{
									OFFSET 0.000000 0.000000 0.000000
									CHANNELS 3 Zrotation Yrotation Xrotation
									End Site
									{
										OFFSET 0.000000 0.000000 0.000000
									}
								}
							}
						}
					}
				}
				JOINT RightShoulder
				{
					OFFSET 0.000000 0.000000 0.000000
					CHANNELS 3 Zrotation Yrotation Xrotation
					JOINT RightArm
					{
						OFFSET -3.136600 1.374050 -0.404650
						CHANNELS 3 Zrotation Yrotation Xrotation
						JOINT RightForeArm
						{
							OFFSET -5.241900 -0.000000 -0.000000
							CHANNELS 3 Zrotation Yrotation Xrotation
							JOINT RightHand
							{
								OFFSET -3.444170 -0.000000 -0.000000
								CHANNELS 3 Zrotation Yrotation Xrotation
								JOINT RightFingerBase
								{
									OFFSET 0.000000 0.000000 0.000000
									CHANNELS 3 Zrotation Yrotation Xrotation
									JOINT RightHandIndex1
									{
										OFFSET -0.622530 -0.000000 -0.000000
										CHANNELS 3 Zrotation Yrotation Xrotation
										End Site
										{
											OFFSET 0.000000 0.000000 0.000000
										}
									}
								}
								JOINT RThumb
								{
									OFFSET 0.000000 0.000000 0.000000
									CHANNELS 3 Zrotation Yrotation Xrotation
									End Site
									{
										OFFSET 0.000000 0.000000 0.000000
									}
								}
							}
						}
					}
				}
			}
		}
	}
}
MOTION
Frames: 6
Frame Time: 0.008333
0.005782 0.005920 0.091064 -0.042214 -0.145840 -0.073859 -0.077716 -0.027037 0.023721 0.112251 -0.323865 0.033042 -0.564760 -0.284658 -1.573122 -0.007313 0.206821 -0.298982 -0.026805 -0.344148 -0.949130 0.055464 -0.014939 -0.079395 0.051991 -0.363645 0.669531 0.066955 0.220398 -0.443486 -0.003219 0.013430 0.035240 0.077838 0.108444 -0.379974 0.109051 0.036334 -0.053999 -0.019847 0.065150 0.036593 -0.074013 0.018976 0.083380 -0.058065 0.030203 0.158351 0.043248 0.034745 -0.114686 0.036341 0.007990 -0.071008 -0.003715 0.003454 -0.000792 -0.059568 0.093447 -0.031381 0.059316 -0.074350 -0.011477 0.031962 -0.058905 0.076763 0.223170 -0.577679 0.022488 0.000000 0.000000 0.000000 0.405490 -0.452464 0.289894 0.018095 -0.019701 0.005559 -0.111336 0.172853 0.332724 -0.191038 0.197366 -0.047871 -0.013744 -0.013338 -0.225767 -0.084976 0.012821 -0.028674 -0.000000 0.000000 0.000000 -0.048906 0.032797 -0.032346
-0.079327 -0.129390 -0.288170 0.117255 0.089143 -0.176359 -0.179378 -0.122136 -0.126598 -0.897126 -0.941455 -2.066601 -0.987564 -0.083229 -1.762099 0.102190 0.471490 -0.090044 -0.015862 -0.392547 -1.643882 -0.149035 -0.064683 -0.104246 0.084727 -0.522451 0.148145 0.040780 0.207374 -0.670595 -0.096855 0.728739 0.027701 0.042003 0.140200 -1.404196 0.170776 0.102517 0.042958 0.027803 0.146954 0.152786 -0.002386 0.036990 0.075258 -0.071951 0.032852 0.068405 0.098821 -0.078614 -0.114413 -0.015100 -0.047123 -0.064636 -0.075975 -0.027604 -0.010932 -0.473644 0.084890 0.068720 0.065753 0.160312 0.040284 0.048870 -0.048302 0.094820 0.386053 -0.784663 0.116507 -0.000862 0.000000 0.000000 1.369375 1.349739 1.447430 0.070860 0.125775 0.023437 0.522591 0.350834 0.581579 -0.192085 0.530660 0.243379 0.032391 0.023007 0.096320 1.830506 0.762687 0.191440 0.046127 0.000000 0.000000 1.186128 0.862794 -0.352747
-0.075658 0.000878 0.260711 0.297995 0.202111 -0.163936 -0.122707 -0.063197 -0.106569 -1.476652 -0.996982 -1.653045 -1.007719 0.506371 -1.456840 0.091302 0.361142 0.412111 0.010761 -0.069809 -1.834985 -0.131620 -0.044241 -0.054967 0.357657 -0.487904 0.057040 0.102700 0.324957 -0.989042 -0.165517 1.697232 0.685966 0.094473 0.441019 -2.019856 0.421203 0.219116 0.247269 0.102266 0.268203 0.361853 0.117212 0.110460 0.292668 0.070066 0.144820 0.151048 0.241404 -0.122463 0.024013 0.010557 -0.064576 -0.024487 -0.109311 -0.023926 -0.009790 -0.583982 0.154818 -0.124388 -0.038283 0.360265 0.088103 0.061658 -0.044127 0.594822 0.782553 -0.567893 0.383259 0.024942 0.000000 0.000000 2.403355 3.358592 2.595048 0.023797 0.260393 0.064524 1.361785 0.686111 0.928176 -0.153313 1.024921 0.043327 0.069485 0.052165 0.409582 3.307324 1.541764 0.156798 0.080237 0.000000 0.000000 1.943384 1.552110 -0.182588
-0.030770 0.012773 0.315907 0.388333 0.108605 -0.177948 -0.125553 -0.105313 -0.124237 -1.974456 -0.947812 -0.913071 -0.917433 1.004142 -1.464785 0.106027 0.157312 0.741284 0.004775 0.152943 -2.380679 -0.209621 -0.066423 -0.075046 0.399385 -0.558525 -0.156333 0.147992 0.389193 -1.583846 -0.308590 2.226609 0.858381 0.075594 0.580647 -3.202878 0.509193 0.246648 0.131138 0.084275 0.265307 0.360110 0.101590 0.113000 0.238188 0.010005 0.108868 0.018593 0.291724 -0.235915 0.080007 0.026439 -0.077412 0.019574 -0.117435 0.008700 0.002160 -0.433075 0.307600 -0.114714 -0.075870 0.583257 0.152991 0.074347 -0.044108 1.056717 1.092585 -0.375851 0.624795 0.038336 0.000000 0.000000 3.160022 4.534297 2.977546 -0.178559 0.250690 0.052638 1.309616 0.699058 0.799359 -0.625183 1.120926 -0.432822 0.076183 0.056330 0.545661 3.316509 1.701670 -0.079882 0.104177 0.000000 0.000000 2.412193 2.297195 0.261365
0.057325 0.077066 0.437156 0.252386 -0.288739 -0.094283 -0.044432 -0.220770 -0.199662 -2.453857 -0.938335 2.346629 -0.681714 0.891469 -2.932837 -0.167267 -0.847323 0.752452 -0.041170 0.088118 -3.380317 -0.415467 -0.116273 -0.233489 0.176779 -0.672998 -0.556958 0.243408 0.468116 -2.335661 -0.463758 2.565899 1.082375 0.082467 0.749252 -4.082472 0.622870 0.286700 0.022525 0.073147 0.276990 0.389512 0.097395 0.108717 0.184004 0.010486 0.096805 -0.042281 0.345688 -0.369645 0.114291 0.081011 -0.076708 0.011502 -0.176021 -0.019246 0.002822 -0.635265 0.311863 -0.516126 -0.316692 0.544520 0.148282 0.046638 -0.116617 0.870864 0.987810 -0.743316 0.581924 0.013288 0.000000 0.000000 2.720944 4.277592 2.243397 -0.546383 0.176564 0.021631 0.994863 0.802230 0.818779 -0.941615 1.339335 -1.301100 0.047196 0.035167 0.438421 1.403259 1.243684 -0.719867 0.118023 0.000000 0.000000 2.162446 2.535918 2.040666
0.072829 0.061671 0.361821 0.326668 -0.631550 -0.447471 -0.290339 -0.280488 -0.187314 -2.661045 -0.800019 4.102139 -0.645462 0.996298 -3.623783 -0.339512 -1.530408 0.886255 -0.054469 0.174066 -4.215411 -0.701466 -0.189715 -0.405242 -0.255410 -1.025512 -1.436570 0.220284 0.369810 -3.300505 -0.664375 2.364368 0.846368 0.048990 0.778799 -5.315536 0.621098 0.276812 -0.261129 -0.004783 0.210718 0.298424 0.013618 0.063600 -0.045787 -0.100281 -0.011332 -0.191098 0.356577 -0.583178 0.011937 -0.017510 -0.154888 -0.152649 -0.385451 -0.168620 -0.022722 -1.311640 0.154011 -1.585959 -0.788338 0.306802 0.094760 0.011103 -0.209391 0.537336 0.744584 -1.335378 0.404475 -0.040415 0.000000 0.000000 1.255556 2.766659 0.467212 -0.895410 0.138363 -0.014160 0.541860 0.766087 0.610341 -1.458520 1.373363 -2.402287 0.015391 -0.004740 0.150811 -1.103195 0.968905 -1.155259 0.134037 0.000000 0.000000 1.729249 2.440372 2.752293
